<svg width="277" height="208" viewBox="0 0 277 208" fill="none" xmlns="http://www.w3.org/2000/svg">
<path d="M276.549 182.762H0.334595V182.9H276.549V182.762Z" fill="#EBEBEB"/>
<path d="M248.873 191.65H230.576V191.788H248.873V191.65Z" fill="#EBEBEB"/>
<path d="M183.31 193.153H178.51V193.291H183.31V193.153Z" fill="#EBEBEB"/>
<path d="M230.024 186.524H219.422V186.662H230.024V186.524Z" fill="#EBEBEB"/>
<path d="M53.1745 187.452H29.3151V187.59H53.1745V187.452Z" fill="#EBEBEB"/>
<path d="M61.5934 187.452H58.0966V187.59H61.5934V187.452Z" fill="#EBEBEB"/>
<path d="M124.714 189.783H72.9624V189.921H124.714V189.783Z" fill="#EBEBEB"/>
<path d="M131.26 158.123H24.5917C23.7561 158.122 22.9552 157.789 22.3648 157.198C21.7744 156.606 21.4429 155.805 21.4429 154.969V5.02323C21.4501 4.19239 21.7849 3.39797 22.3745 2.81253C22.9641 2.22709 23.7608 1.89791 24.5917 1.89648H131.26C132.097 1.89648 132.899 2.22882 133.491 2.82038C134.082 3.41194 134.415 4.21426 134.415 5.05085V154.969C134.415 155.806 134.082 156.608 133.491 157.2C132.899 157.791 132.097 158.123 131.26 158.123ZM24.5917 2.00697C23.7927 2.00843 23.0269 2.32686 22.4625 2.89236C21.898 3.45786 21.581 4.22423 21.581 5.02323V154.969C21.581 155.768 21.898 156.534 22.4625 157.1C23.0269 157.665 23.7927 157.984 24.5917 157.985H131.26C132.06 157.984 132.826 157.666 133.391 157.1C133.957 156.535 134.275 155.769 134.277 154.969V5.02323C134.275 4.22372 133.957 3.45737 133.391 2.89203C132.826 2.32668 132.06 2.00843 131.26 2.00697H24.5917Z" fill="#EBEBEB"/>
<path d="M250.756 158.123H144.082C143.246 158.122 142.445 157.789 141.853 157.198C141.262 156.607 140.929 155.805 140.928 154.969V5.02323C140.937 4.19189 141.273 3.39748 141.863 2.81219C142.454 2.2269 143.251 1.89789 144.082 1.89648H250.756C251.586 1.89936 252.382 2.22918 252.97 2.81447C253.558 3.39976 253.892 4.19335 253.9 5.02323V154.969C253.9 155.804 253.569 156.604 252.98 157.196C252.39 157.787 251.591 158.121 250.756 158.123ZM144.082 2.00697C143.283 2.00843 142.516 2.32668 141.951 2.89203C141.386 3.45737 141.067 4.22372 141.066 5.02323V154.969C141.067 155.769 141.386 156.535 141.951 157.1C142.516 157.666 143.283 157.984 144.082 157.985H250.756C251.556 157.984 252.322 157.666 252.888 157.1C253.453 156.535 253.771 155.769 253.773 154.969V5.02323C253.771 4.22372 253.453 3.45737 252.888 2.89203C252.322 2.32668 251.556 2.00843 250.756 2.00697H144.082Z" fill="#EBEBEB"/>
<path d="M215.064 146.567C231.902 146.567 245.552 136.07 245.552 123.122C245.552 110.173 231.902 99.6765 215.064 99.6765C198.226 99.6765 184.575 110.173 184.575 123.122C184.575 136.07 198.226 146.567 215.064 146.567Z" fill="#EBEBEB"/>
<path d="M208.683 117.072C221.995 117.072 232.786 108.772 232.786 98.5329C232.786 88.2938 221.995 79.9934 208.683 79.9934C195.372 79.9934 184.581 88.2938 184.581 98.5329C184.581 108.772 195.372 117.072 208.683 117.072Z" fill="#EBEBEB"/>
<path d="M210.528 17.4143C210.528 17.4143 214.511 13.9727 209.341 13.1496C199.949 11.6525 191.459 16.3316 190.381 16.9558C191.486 14.7848 190.702 13.0888 185.039 13.702C180.581 14.1716 168.61 20.1267 168.61 20.1267H227.123C235.205 12.8623 210.528 17.4143 210.528 17.4143Z" fill="#F0F0F0"/>
<path d="M52.9646 43.6987C52.9646 43.6987 56.246 41.1465 53.4507 40.5388C48.3849 39.434 42.1204 42.8977 41.2973 43.3562C42.5513 41.7487 42.5402 40.5112 39.0876 40.9476C36.3254 41.2957 27.7075 45.7041 27.7075 45.7041H61.9139C68.648 40.3234 52.9646 43.6987 52.9646 43.6987Z" fill="#F0F0F0"/>
<path d="M234.769 38.5998C234.769 38.5998 237.1 36.7879 235.117 36.3515C231.515 35.567 227.063 38.0087 226.494 38.3568C227.388 37.2132 227.377 36.3349 224.914 36.6442C222.969 36.8928 216.826 40.0251 216.826 40.0251H241.133C245.911 36.2023 234.769 38.5998 234.769 38.5998Z" fill="#F5F5F5"/>
<path d="M61.5934 169.807C70.6182 169.807 77.9343 164.181 77.9343 157.24C77.9343 150.299 70.6182 144.672 61.5934 144.672C52.5686 144.672 45.2526 150.299 45.2526 157.24C45.2526 164.181 52.5686 169.807 61.5934 169.807Z" fill="#EBEBEB"/>
<path d="M51.3956 160.052C39.4852 160.052 29.8508 170.216 29.8508 182.762H72.979C72.9624 170.216 63.3115 160.052 51.3956 160.052Z" fill="#EBEBEB"/>
<path d="M158.108 65.4866H62.3392V182.762H158.108V65.4866Z" fill="#F0F0F0"/>
<path d="M158.103 182.762H214.545L214.545 65.4865H158.103V182.762Z" fill="#E6E6E6"/>
<path d="M175.67 117.492H196.988V76.7781H175.67V117.492Z" fill="#F5F5F5"/>
<path d="M117.919 96.0525H139.237V71.5025H117.919V96.0525Z" fill="#F5F5F5"/>
<path d="M81.2102 96.0525H102.528V71.5025H81.2102V96.0525Z" fill="#F5F5F5"/>
<path d="M117.919 105.14H139.237V100.599H117.919V105.14Z" fill="#F5F5F5"/>
<path d="M81.2102 105.14H102.528V100.599H81.2102V105.14Z" fill="#F5F5F5"/>
<path d="M158.103 182.762H214.545V131.717H158.103V182.762Z" fill="#F5F5F5"/>
<path d="M188.078 164.576H205.905V139.678H188.078V164.576Z" fill="#E6E6E6"/>
<path d="M166.754 164.576H184.581V139.678H166.754V164.576Z" fill="#E6E6E6"/>
<path d="M158.108 131.717H62.3392V182.762H158.108V131.717Z" fill="#FAFAFA"/>
<path d="M98.8383 138.346H77.9288V179.889H98.8383V138.346Z" fill="#E6E6E6"/>
<path d="M166.66 28.9656H110.224L158.108 65.4867H214.545L166.66 28.9656Z" fill="#F0F0F0"/>
<path d="M99.7221 24.6069H84.011V56.8909H99.7221V24.6069Z" fill="#EBEBEB"/>
<path d="M110.224 28.9656L62.3392 65.4867H158.108L110.224 28.9656Z" fill="#FAFAFA"/>
<path d="M110.224 35.9924L71.5537 65.4866H148.894L110.224 35.9924Z" fill="#F0F0F0"/>
<path d="M131.934 111.708H67.1177L52.5723 126.254V131.717H146.485V126.254L131.934 111.708Z" fill="#E6E6E6"/>
<path d="M214.55 177.017H52.5723V182.762H214.55V177.017Z" fill="#E6E6E6"/>
<path d="M158.108 157.24H93.5736V177.016H158.108V157.24Z" fill="#F0F0F0"/>
<path d="M132.365 131.717H128.559V177.016H132.365V131.717Z" fill="#E6E6E6"/>
<path d="M59.323 131.717H55.5167V177.016H59.323V131.717Z" fill="#E6E6E6"/>
<path d="M138.442 207.709C197.597 207.709 245.552 204.91 245.552 201.456C245.552 198.002 197.597 195.202 138.442 195.202C79.2864 195.202 31.3314 198.002 31.3314 201.456C31.3314 204.91 79.2864 207.709 138.442 207.709Z" fill="#F5F5F5"/>
<path d="M159.059 99.041H151.374V203.113H159.059V99.041Z" fill="#6E38E0"/>
<path opacity="0.3" d="M159.059 99.041H151.374V203.113H159.059V99.041Z" fill="white"/>
<path d="M166.743 99.041H159.059V203.113H166.743V99.041Z" fill="#6E38E0"/>
<path opacity="0.5" d="M166.743 99.041H159.059V203.113H166.743V99.041Z" fill="white"/>
<path d="M221.759 104.969H161.583V112.288H221.759V104.969Z" fill="#6E38E0"/>
<path opacity="0.3" d="M221.759 104.969H161.583V112.288H221.759V104.969Z" fill="white"/>
<path d="M227.046 104.969H221.759V112.288H227.046V104.969Z" fill="#6E38E0"/>
<path opacity="0.5" d="M227.046 104.969H221.759V112.288H227.046V104.969Z" fill="white"/>
<path d="M216.953 112.288H171.433V155.809H216.953V112.288Z" fill="#6E38E0"/>
<path opacity="0.2" d="M216.953 112.288H215.351V155.809H216.953V112.288Z" fill="black"/>
<path d="M179.504 121.486H186.685V123.503H182.432V125.16H186.067V127.055H182.432V130.889H179.515L179.504 121.486Z" fill="white"/>
<path d="M187.873 126.193C187.804 125.539 187.882 124.878 188.1 124.258C188.319 123.638 188.674 123.074 189.138 122.608C189.602 122.143 190.164 121.786 190.784 121.565C191.403 121.344 192.064 121.265 192.718 121.332C193.374 121.289 194.032 121.378 194.652 121.595C195.273 121.811 195.844 122.15 196.331 122.591C196.77 123.062 197.108 123.617 197.326 124.223C197.543 124.829 197.635 125.473 197.596 126.116C197.632 127.047 197.443 127.974 197.044 128.817C196.687 129.517 196.129 130.094 195.442 130.474C194.637 130.891 193.739 131.093 192.834 131.06C191.931 131.092 191.032 130.92 190.205 130.557C189.496 130.203 188.909 129.645 188.52 128.955C188.058 128.11 187.834 127.155 187.873 126.193ZM190.774 126.193C190.71 126.914 190.896 127.635 191.298 128.237C191.486 128.431 191.71 128.585 191.958 128.69C192.207 128.795 192.473 128.849 192.743 128.849C193.012 128.849 193.279 128.795 193.527 128.69C193.776 128.585 194 128.431 194.188 128.237C194.525 127.834 194.696 127.104 194.696 126.027C194.748 125.337 194.552 124.652 194.143 124.094C193.962 123.89 193.738 123.729 193.486 123.622C193.235 123.516 192.963 123.468 192.69 123.48C192.424 123.47 192.159 123.52 191.915 123.627C191.671 123.735 191.454 123.896 191.282 124.099C190.873 124.716 190.693 125.457 190.774 126.193Z" fill="white"/>
<path d="M199.209 130.872V121.481H204.043C204.736 121.456 205.428 121.534 206.098 121.713C206.565 121.86 206.969 122.162 207.241 122.569C207.543 123.017 207.696 123.548 207.678 124.088C207.696 124.544 207.59 124.996 207.37 125.395C207.15 125.794 206.824 126.125 206.429 126.353C206.112 126.53 205.769 126.655 205.413 126.723C205.679 126.802 205.932 126.919 206.164 127.071C206.338 127.215 206.494 127.381 206.628 127.563C206.782 127.745 206.919 127.941 207.037 128.148L208.44 130.866H205.164L203.629 128.005C203.496 127.733 203.308 127.492 203.076 127.298C202.868 127.155 202.621 127.08 202.369 127.082H202.109V130.888L199.209 130.872ZM202.12 125.292H203.347C203.606 125.272 203.863 125.229 204.115 125.165C204.303 125.128 204.47 125.021 204.584 124.867C204.708 124.71 204.772 124.514 204.767 124.315C204.773 124.184 204.751 124.053 204.701 123.932C204.652 123.81 204.576 123.702 204.479 123.613C204.148 123.413 203.759 123.327 203.374 123.37H202.098L202.12 125.292Z" fill="white"/>
<path d="M174.98 143.501L177.742 143.329C177.771 143.697 177.899 144.05 178.112 144.351C178.266 144.538 178.461 144.685 178.683 144.781C178.905 144.878 179.147 144.919 179.388 144.904C179.733 144.927 180.074 144.825 180.349 144.617C180.452 144.535 180.534 144.432 180.592 144.314C180.649 144.197 180.679 144.068 180.681 143.937C180.678 143.812 180.648 143.688 180.593 143.575C180.538 143.463 180.458 143.364 180.36 143.285C179.911 142.998 179.407 142.81 178.88 142.733C177.894 142.573 176.961 142.181 176.156 141.589C175.893 141.369 175.682 141.093 175.54 140.78C175.399 140.467 175.33 140.126 175.339 139.783C175.339 139.294 175.485 138.817 175.759 138.413C176.066 137.956 176.505 137.603 177.018 137.402C177.756 137.127 178.541 137.001 179.327 137.032C180.295 136.967 181.259 137.2 182.089 137.7C182.415 137.956 182.681 138.279 182.872 138.647C183.062 139.015 183.172 139.419 183.194 139.832L180.46 139.993C180.452 139.818 180.408 139.647 180.331 139.49C180.254 139.332 180.146 139.193 180.013 139.079C179.879 138.966 179.724 138.881 179.557 138.83C179.39 138.779 179.214 138.763 179.04 138.783C178.768 138.763 178.499 138.839 178.278 138.998C178.197 139.059 178.131 139.137 178.086 139.227C178.041 139.317 178.018 139.417 178.018 139.518C178.023 139.596 178.045 139.673 178.082 139.743C178.119 139.812 178.171 139.873 178.233 139.921C178.529 140.105 178.86 140.224 179.206 140.269C180.143 140.436 181.058 140.714 181.929 141.098C182.418 141.323 182.832 141.683 183.122 142.136C183.375 142.554 183.505 143.034 183.498 143.523C183.499 144.112 183.326 144.688 183.001 145.18C182.659 145.694 182.173 146.096 181.603 146.335C180.885 146.618 180.116 146.751 179.344 146.727C177.747 146.727 176.642 146.423 176.029 145.804C175.415 145.187 175.043 144.369 174.98 143.501Z" fill="white"/>
<path d="M190.724 145.058H187.409L186.951 146.605H183.99L187.52 137.214H190.68L194.237 146.633H191.199L190.724 145.058ZM190.122 143.025L189.089 139.656L188.061 143.025H190.122Z" fill="white"/>
<path d="M195.154 137.241H198.055V144.318H202.579V146.633H195.154V137.241Z" fill="white"/>
<path d="M203.888 137.241H211.661V139.247H206.799V140.738H211.313V142.655H206.799V144.506H211.804V146.633H203.888V137.241Z" fill="white"/>
<path d="M121.725 54.7971L120.891 55.9019C120.621 56.25 120.339 56.587 120.057 56.9239C119.505 57.5979 118.919 58.2498 118.333 58.9016C117.151 60.1888 115.925 61.4539 114.582 62.6582C113.217 63.9254 111.76 65.0905 110.224 66.144C109.378 66.7229 108.496 67.2469 107.583 67.7129C106.508 68.2654 105.368 68.6847 104.191 68.9614L103.954 69.0111C103.749 69.0573 103.54 69.085 103.33 69.094C102.186 69.1275 101.051 68.8929 100.015 68.4089C99.3064 68.0833 98.6419 67.6694 98.0372 67.177C97.1212 66.4306 96.2861 65.59 95.5458 64.669C94.2997 63.1103 93.1907 61.4469 92.2312 59.6971C91.3142 58.0399 90.5021 56.3494 89.7674 54.6424C89.0224 52.9392 88.366 51.1985 87.8007 49.4275C87.6309 48.862 87.6645 48.2549 87.8959 47.7118C88.1273 47.1686 88.5417 46.7237 89.0671 46.4544C89.5925 46.1851 90.1957 46.1085 90.7718 46.2379C91.3478 46.3672 91.8603 46.6944 92.2202 47.1625L92.2699 47.2288C93.2919 48.6044 94.3249 50.0462 95.3635 51.4217C96.402 52.7973 97.4406 54.1839 98.5123 55.46C99.5023 56.6931 100.575 57.8577 101.722 58.9458C102.158 59.3691 102.642 59.7399 103.164 60.0507C103.352 60.1501 103.495 60.1888 103.484 60.1612C103.473 60.1336 103.263 59.9955 102.761 60.0065L101.899 60.1391C102.282 59.9506 102.651 59.7346 103.004 59.4927C103.468 59.1723 103.987 58.8022 104.501 58.3879C105.014 57.9736 105.545 57.4874 106.064 56.9902C106.583 56.493 107.119 55.9848 107.644 55.4545C108.683 54.3496 109.727 53.2448 110.743 52.1012L112.262 50.3556L113.721 48.643L113.859 48.4828C114.71 47.4836 115.918 46.8562 117.225 46.7342C118.532 46.6122 119.836 47.0053 120.857 47.8297C121.879 48.6541 122.539 49.8447 122.695 51.1481C122.852 52.4515 122.495 53.7647 121.698 54.8081L121.725 54.7971Z" fill="#263238"/>
<path d="M92.1041 46.0908C91.7892 43.6049 87.2759 42.4558 87.2759 42.4558L84.6408 41.2902C84.2089 41.0977 83.7226 41.0654 83.269 41.199C82.8155 41.3326 82.4244 41.6235 82.1659 42.0194L80.8235 44.0744C80.682 44.2957 80.5855 44.5427 80.5395 44.8012C80.4935 45.0598 80.4988 45.3249 80.5552 45.5814C80.6117 45.8379 80.7181 46.0807 80.8684 46.2961C81.0187 46.5115 81.2099 46.6951 81.4312 46.8366L83.8508 48.3502C84.2848 48.6182 84.7705 48.7914 85.2761 48.8585L87.3311 49.1236C88.1946 49.2353 89.0721 49.0993 89.8614 48.7315C90.6506 48.3638 91.3192 47.7795 91.7892 47.0465L91.9163 46.8532C92.0627 46.6273 92.1288 46.3588 92.1041 46.0908Z" fill="#FFB573"/>
<path d="M122.88 144.197C130.061 121.398 135.635 93.6549 135.635 93.6549L114.008 91.5281C114.008 91.5281 112.588 127.226 111.246 143.037C109.843 159.471 104.357 197.65 104.357 197.65L110.931 198.202C110.931 198.202 122.217 164.609 122.88 144.197Z" fill="#263238"/>
<path d="M127.2 112.283L130.205 117.647C128.669 123.906 126.891 130.789 124.907 137.534C125.184 126.95 126.288 114.741 127.2 112.283Z" fill="black"/>
<path d="M95.5458 199.169C95.5458 199.169 104.843 198.406 105.733 197.086L110.732 197.843L109.909 203.113L106.826 202.649L106.429 202.097L105.572 202.467C103.086 202.086 96.4573 200.992 94.9878 200.218C94.9798 200.01 95.0273 199.803 95.1253 199.618C95.2233 199.434 95.3684 199.279 95.5458 199.169Z" fill="#263238"/>
<path d="M143.9 142.677C143.519 119.238 145.005 103.571 143.01 92.0197L123.25 91.7214C123.25 91.7214 128.106 128.911 130.52 144.396C132.934 159.88 136.006 198.119 136.006 198.119H142.115C142.115 198.119 147.43 160.814 143.9 142.677Z" fill="#263238"/>
<path d="M130.017 201.351C130.017 201.351 135.879 199.213 136.646 197.777H141.707L141.326 203.113H137.193L136.746 202.621L135.928 203.113C133.404 203.113 131.089 203.014 129.542 202.445C129.524 202.237 129.558 202.029 129.641 201.838C129.724 201.647 129.854 201.479 130.017 201.351Z" fill="#263238"/>
<path d="M142.132 45.2455C135.144 44.3782 125.156 44.4611 118.46 45.6157C116.788 45.9184 115.253 46.7396 114.073 47.9631C112.893 49.1866 112.128 50.7502 111.887 52.4326C110.478 62.5421 111.688 80.2143 112.588 98.0025C127.879 103.234 144.016 97.9307 144.016 97.9307C144.568 94.3399 143.32 82.5842 142.475 76.3086C143.74 69.8286 146.413 62.404 148.181 53.7971C148.398 52.8338 148.411 51.8355 148.218 50.867C148.025 49.8985 147.63 48.9814 147.06 48.1751C146.489 47.3688 145.756 46.6914 144.907 46.1867C144.058 45.6821 143.113 45.3614 142.132 45.2455Z" fill="#263238"/>
<path d="M124.112 44.9362C123.272 45.7814 122.714 47.1127 122.416 48.8032C121.698 52.9077 122.51 59.233 124.675 66.4809C126.747 60.6362 131.205 52.9022 133.945 48.4109C135.243 46.2841 136.155 44.8754 136.232 44.7538C132.237 43.8299 128.077 43.8924 124.112 44.9362Z" fill="#E0E0E0"/>
<path d="M135.216 31.8933L127.255 38.423C128.288 41.1575 128.614 44.0081 124.117 45.1074C123.013 46.5934 124.979 48.2949 126.835 49.0683C129.835 48.6982 134.067 47.6983 135.895 45.2013C135.315 43.2126 134.442 35.9426 135.216 31.8933Z" fill="#FFB573"/>
<path d="M124.935 47.4222C125.271 48.3764 125.84 49.2312 126.592 49.9081C127.808 49.9081 129.581 48.5436 129.581 48.5436C129.581 48.5436 128.896 46.6156 127.924 46.2234C125.465 46.8311 124.935 47.4222 124.935 47.4222Z" fill="#6E38E0"/>
<path d="M127.708 49.0738C127.52 48.9281 127.303 48.8226 127.072 48.7637C126.842 48.7048 126.601 48.6937 126.366 48.7313C124.775 50.9907 123.764 54.5042 122.781 58.559C123.252 61.2517 123.885 63.9136 124.675 66.5305C125.561 64.1252 126.595 61.7766 127.769 59.4981C127.315 56.0394 127.295 52.5375 127.708 49.0738Z" fill="#6E38E0"/>
<path opacity="0.2" d="M131.896 34.6167L127.261 38.4174C127.509 39.0514 127.694 39.7083 127.813 40.3785C129.609 40.5056 132.106 38.6881 132.233 37.064C132.272 36.2344 132.158 35.4048 131.896 34.6167Z" fill="black"/>
<path d="M123.974 20.4691C120.504 23.8887 122.78 29.3577 122.78 29.3577C122.78 29.3577 128.846 18.5356 123.974 20.4691Z" fill="#263238"/>
<path d="M136.354 27.4462C135.63 32.4181 135.459 35.3957 132.708 37.738C128.57 41.2625 122.565 38.3954 121.781 33.2743C121.079 28.6616 122.383 21.2756 127.465 19.7288C128.59 19.3866 129.784 19.3357 130.935 19.5808C132.085 19.8259 133.155 20.359 134.043 21.1302C134.931 21.9014 135.609 22.8854 136.013 23.99C136.417 25.0947 136.534 26.2839 136.354 27.4462Z" fill="#FFB573"/>
<path d="M136.912 30.0039C133.172 30.7718 132.089 27.8771 132.089 27.8771C132.847 28.0346 133.629 28.0346 134.387 27.8771C134.387 27.8771 131.868 25.3028 133.835 22.8113C132.807 21.7065 128.233 22.1816 126.101 22.8113C123.769 21.933 122.571 21.5242 121.328 18.7565C122.477 18.9554 123.659 18.8093 124.725 18.3366C127.045 17.2705 123.565 16.486 123.565 16.486C126.233 15.443 129.124 15.1025 131.962 15.4972C137.376 16.2595 138.215 17.8671 138.005 19.6901C140.839 19.6569 141.121 22.8113 141.121 22.8113C140.777 22.5354 140.372 22.346 139.939 22.2589C140.099 23.2201 140.652 28.8604 136.912 30.0039Z" fill="#263238"/>
<path d="M137.238 20.0603C138.276 19.5907 138.591 17.1103 137.978 16.0718C140.757 19.0217 138.751 20.226 137.238 20.0603Z" fill="#263238"/>
<path d="M138.044 31.3188C137.813 31.8426 137.48 32.3154 137.064 32.7099C136.649 33.1043 136.16 33.4126 135.624 33.6169C134.183 34.1693 133.321 32.8987 133.603 31.4734C133.857 30.1863 134.912 28.3633 136.414 28.4406C136.742 28.462 137.059 28.5645 137.337 28.7389C137.615 28.9133 137.845 29.1541 138.006 29.4397C138.168 29.7252 138.256 30.0464 138.263 30.3744C138.269 30.7025 138.194 31.027 138.044 31.3188Z" fill="#FFB573"/>
<path d="M129.349 27.6284C129.316 28.0372 129.067 28.3466 128.796 28.3245C128.526 28.3024 128.338 27.9488 128.377 27.54C128.415 27.1312 128.653 26.8164 128.929 26.844C129.205 26.8716 129.382 27.2196 129.349 27.6284Z" fill="#263238"/>
<path d="M124.46 27.507C124.427 27.9158 124.184 28.2307 123.907 28.2031C123.631 28.1754 123.454 27.8274 123.488 27.4186C123.521 27.0098 123.764 26.7005 124.04 26.7225C124.316 26.7446 124.493 27.0982 124.46 27.507Z" fill="#263238"/>
<path d="M125.449 28.0593C125.449 28.0593 124.344 30.3298 123.206 31.3739C123.874 32.1142 125.128 31.9263 125.128 31.9263L125.449 28.0593Z" fill="#ED893E"/>
<path d="M130.537 26.402C130.577 26.4105 130.618 26.4105 130.658 26.402C130.688 26.3905 130.715 26.3731 130.738 26.3509C130.761 26.3287 130.779 26.3021 130.791 26.2727C130.804 26.2433 130.81 26.2118 130.81 26.1799C130.81 26.148 130.803 26.1165 130.791 26.0872C130.653 25.7243 130.431 25.3996 130.143 25.1401C129.855 24.8807 129.509 24.6939 129.133 24.5956C129.071 24.5841 129.007 24.5973 128.954 24.6324C128.902 24.6674 128.865 24.7216 128.852 24.7834C128.839 24.8464 128.851 24.912 128.886 24.9659C128.921 25.0197 128.977 25.0574 129.039 25.0707C129.333 25.1531 129.602 25.3043 129.825 25.5119C130.048 25.7195 130.218 25.9773 130.321 26.2639C130.34 26.3051 130.37 26.34 130.409 26.3645C130.447 26.3889 130.491 26.402 130.537 26.402Z" fill="#263238"/>
<path d="M122.184 25.9492C122.221 25.9627 122.262 25.9667 122.301 25.9609C122.341 25.9552 122.378 25.9397 122.41 25.916C122.647 25.7285 122.924 25.6 123.22 25.5414C123.516 25.4828 123.822 25.4957 124.112 25.579C124.142 25.5904 124.173 25.5957 124.205 25.5947C124.237 25.5936 124.268 25.5861 124.297 25.5727C124.326 25.5593 124.352 25.5403 124.373 25.5167C124.394 25.4931 124.411 25.4655 124.421 25.4354C124.443 25.3753 124.44 25.3092 124.413 25.2513C124.386 25.1934 124.337 25.1484 124.278 25.1261C123.913 25.0148 123.526 24.9934 123.151 25.0636C122.776 25.1339 122.423 25.2936 122.123 25.5293C122.089 25.5556 122.062 25.5906 122.046 25.6306C122.03 25.6706 122.024 25.7143 122.03 25.7571C122.037 25.7998 122.054 25.8402 122.081 25.874C122.108 25.9077 122.144 25.9337 122.184 25.9492Z" fill="#263238"/>
<path d="M136.232 44.7703C136.149 44.8918 135.243 46.3005 133.945 48.4273C132.64 49.6343 131.039 50.4748 129.305 50.8636C129.559 50.0073 128.791 47.107 127.94 46.2121C129.946 46.3281 132.708 45.9856 136.232 44.7703Z" fill="#FAFAFA"/>
<path d="M127.946 46.2232C127.027 46.626 126.2 47.2106 125.514 47.9416C124.827 48.6726 124.296 49.5351 123.952 50.4769C123.597 50.322 123.28 50.0944 123.019 49.809C122.758 49.5235 122.56 49.1864 122.438 48.8196C122.736 47.1126 123.294 45.7813 124.134 44.9526C124.581 45.5382 125.846 46.0906 127.946 46.2232Z" fill="#FAFAFA"/>
<path d="M148.198 50.129C148.607 51.0184 148.949 51.7863 149.303 52.6536C149.656 53.5209 149.966 54.3109 150.286 55.1727C150.905 56.8631 151.485 58.5757 151.993 60.3434C152.528 62.1418 152.967 63.9674 153.308 65.8125C153.485 66.7627 153.634 67.746 153.733 68.7846C153.839 69.9215 153.852 71.0651 153.772 72.2041C153.529 74.4978 152.817 76.7168 151.678 78.7228C150.731 80.4456 149.621 82.0735 148.364 83.5841C147.179 85.0145 145.908 86.3705 144.557 87.6445C143.219 88.9107 141.798 90.0862 140.304 91.1635C139.822 91.5072 139.234 91.6708 138.644 91.6255C138.054 91.5802 137.499 91.329 137.075 90.9157C136.651 90.5025 136.386 89.9535 136.326 89.3646C136.266 88.7758 136.414 88.1845 136.746 87.6942L136.829 87.5782L138.215 85.5397C138.685 84.8547 139.132 84.1531 139.58 83.4571C140.458 82.0705 141.315 80.6949 142.049 79.2807C142.78 77.9622 143.41 76.59 143.933 75.1762C144.162 74.5567 144.347 73.9217 144.485 73.2758C144.599 72.7816 144.646 72.2743 144.624 71.7677C144.583 71.1787 144.5 70.5935 144.375 70.0165C144.242 69.3425 144.082 68.6243 143.883 67.8896C143.475 66.4202 142.988 64.8955 142.458 63.3652C141.928 61.835 141.353 60.2937 140.762 58.7524L138.972 54.1728L138.928 54.0678C138.456 52.8466 138.477 51.4896 138.987 50.2837C139.497 49.0779 140.457 48.1177 141.662 47.6062C142.867 47.0946 144.224 47.0719 145.446 47.5427C146.668 48.0135 147.658 48.941 148.209 50.129H148.198Z" fill="#263238"/>
<path d="M118.582 76.1594C116.363 77.8837 114.869 80.3751 114.393 83.1445C113.917 85.9139 114.493 88.7613 116.008 91.1277C117.523 93.4941 119.869 95.2087 122.583 95.9349C125.298 96.661 128.186 96.3463 130.68 95.0525L132.061 96.8202L131.807 97.9251L134.741 101.698L136.343 101.731L135.906 103.593L141.663 110.996L144.756 111.051L145.795 112.393L145.281 114.603L149.098 119.508L152.335 119.569L152.888 116.094L134.277 92.1688C136.021 90.0206 136.913 87.3055 136.784 84.5414C136.654 81.7773 135.512 79.1575 133.574 77.1818C131.637 75.2061 129.04 74.0127 126.279 73.8292C123.518 73.6458 120.786 74.485 118.604 76.187L118.582 76.1594ZM123.344 82.2803C122.897 82.6294 122.356 82.8381 121.791 82.8799C121.225 82.9217 120.66 82.7948 120.166 82.5152C119.673 82.2357 119.273 81.816 119.018 81.3093C118.763 80.8026 118.664 80.2317 118.734 79.6688C118.803 79.1059 119.038 78.5762 119.409 78.1469C119.78 77.7176 120.269 77.4078 120.816 77.2569C121.363 77.1059 121.942 77.1205 122.481 77.2988C123.019 77.4771 123.493 77.8112 123.841 78.2586C124.308 78.858 124.518 79.6183 124.425 80.3723C124.332 81.1264 123.943 81.8126 123.344 82.2803Z" fill="#6E38E0"/>
<path d="M140.994 90.075C140.921 89.8083 140.754 89.5769 140.525 89.4232L138.574 88.0753C138.387 87.9455 138.167 87.871 137.94 87.8602C137.712 87.8495 137.486 87.9029 137.287 88.0145L135.536 89.0144C133.834 89.9781 132.358 91.297 131.211 92.8814L130.829 93.4338C130.675 93.6494 130.565 93.8937 130.506 94.1524C130.447 94.4111 130.44 94.6789 130.486 94.9403C130.531 95.2016 130.629 95.4512 130.772 95.6744C130.916 95.8976 131.102 96.09 131.321 96.2402L133.343 97.6323C133.733 97.8999 134.206 98.0202 134.676 97.9716C135.147 97.9231 135.585 97.7088 135.912 97.3671L137.889 95.2568C137.889 95.2568 141.646 92.4947 140.994 90.075Z" fill="#FFB573"/>
<path d="M137.398 86.9705C136.532 87.3365 135.728 87.832 135.011 88.4399C135.265 89.9922 139.591 92.5776 141.049 92.6108C141.64 92.0583 142.419 89.7879 142.419 89.7879C140.784 89.0807 138.58 87.5229 137.398 86.9705Z" fill="#E0E0E0"/>
<path d="M93.1426 48.3004C93.1619 47.3665 93.0389 46.4351 92.778 45.5382C91.2588 45.1294 87.1322 48.0241 86.5079 49.35C86.7786 50.1178 88.5188 51.7475 88.5188 51.7475C89.828 50.5101 92.1482 49.129 93.1426 48.3004Z" fill="#E0E0E0"/>
<path d="M135.647 198.291L142.43 198.484L143.138 194.628L135.199 195.103L135.647 198.291Z" fill="#6E38E0"/>
<path d="M104.037 197.6L111.29 198.721L112.516 195.517L104.479 193.7L104.037 197.6Z" fill="#6E38E0"/>
<path d="M127.018 33.3849C126.756 33.3962 126.493 33.3832 126.233 33.3463C126.216 33.3437 126.199 33.3375 126.184 33.3281C126.169 33.3188 126.157 33.3065 126.147 33.2919C126.137 33.2774 126.13 33.261 126.127 33.2437C126.124 33.2264 126.124 33.2087 126.128 33.1916C126.136 33.1545 126.157 33.1217 126.188 33.0993C126.219 33.0769 126.256 33.0665 126.294 33.07C126.879 33.1569 127.476 33.1101 128.041 32.9331C128.605 32.7561 129.122 32.4535 129.553 32.048C129.58 32.0224 129.616 32.0081 129.653 32.0081C129.69 32.0081 129.725 32.0224 129.752 32.048C129.777 32.0739 129.792 32.1086 129.792 32.1447C129.792 32.1809 129.777 32.2156 129.752 32.2414C129.014 32.9481 128.039 33.3555 127.018 33.3849Z" fill="#263238"/>
<path d="M108.009 13.1935L91.2976 11.8511L77.1057 4.80762L61.5493 9.45907L59.3064 37.3844L105.766 41.1188L108.009 13.1935Z" fill="#6E38E0"/>
<path d="M54.4948 40.0969L47.142 39.5058L48.0645 28.0374L48.9429 28.1092L48.0921 38.6992L54.5666 39.2185L54.4948 40.0969Z" fill="#6E38E0"/>
<path d="M57.9638 39.2699L57.8931 40.1538L63.6383 40.6134L63.709 39.7295L57.9638 39.2699Z" fill="#6E38E0"/>
<path d="M61.8439 27.2697L51.288 26.4204L50.463 36.6735L61.019 37.5228L61.8439 27.2697Z" fill="#6E38E0"/>
<path opacity="0.2" d="M61.0245 37.5226L70.2833 38.2684L71.4047 24.303L61.8477 27.264L61.0245 37.5226Z" fill="black"/>
<path opacity="0.2" d="M108.009 13.2067L91.2969 11.8621L89.0502 39.7855L105.762 41.1301L108.009 13.2067Z" fill="black"/>
<path d="M93.8167 6.15002L77.1057 4.80762L91.2976 11.8511L108.009 13.1935L93.8167 6.15002Z" fill="#263238"/>
<path d="M108.009 14.0774H107.937L91.2258 12.735C91.1142 12.7232 91.0057 12.6914 90.9054 12.6411L76.7135 5.59766C76.5296 5.5063 76.3833 5.35378 76.2996 5.16628C76.216 4.97878 76.2002 4.76801 76.255 4.57014C76.3114 4.37302 76.4339 4.20127 76.6018 4.08361C76.7697 3.96596 76.973 3.90954 77.1775 3.9238L93.8885 5.2662C94.0019 5.27794 94.1122 5.30974 94.2145 5.36011L108.401 12.3925C108.57 12.4858 108.704 12.6318 108.782 12.8084C108.86 12.9849 108.879 13.1822 108.834 13.3702C108.79 13.5581 108.685 13.7263 108.536 13.849C108.387 13.9718 108.202 14.0423 108.009 14.0498V14.0774ZM91.5352 10.9838L103.512 11.9506L93.5681 7.0174L81.5914 6.05065L91.5352 10.9838Z" fill="#263238"/>
<path d="M60.8533 23.4578L71.4047 24.303L61.8477 27.264L51.2963 26.4188L60.8533 23.4578Z" fill="#263238"/>
<path d="M61.8476 27.8275H61.8034L51.2465 26.9768C51.1168 26.967 50.9947 26.9117 50.9018 26.8208C50.8088 26.7298 50.7509 26.609 50.7383 26.4796C50.7252 26.347 50.7605 26.2141 50.8376 26.1055C50.9148 25.9969 51.0286 25.9198 51.1581 25.8885L60.7151 22.9219C60.7845 22.9085 60.8557 22.9085 60.9251 22.9219L71.4765 23.7727C71.6063 23.781 71.729 23.8349 71.823 23.9248C71.9169 24.0148 71.9762 24.135 71.9902 24.2643C72.006 24.3941 71.9753 24.5253 71.9034 24.6345C71.8316 24.7438 71.7234 24.824 71.598 24.861L62.041 27.822C61.9773 27.8352 61.9119 27.837 61.8476 27.8275ZM54.2241 26.0929L61.7868 26.7005L68.4768 24.6289L60.914 24.0213L54.2241 26.0929Z" fill="#263238"/>
<path d="M61.9747 10.3762C61.7654 10.3736 61.5638 10.2969 61.4058 10.1597C61.2478 10.0225 61.1435 9.83361 61.1117 9.62674C61.0799 9.41987 61.1225 9.20842 61.232 9.03003C61.3415 8.85164 61.5107 8.71789 61.7095 8.65258L76.8461 3.96246C76.9608 3.90111 77.0875 3.86581 77.2174 3.85909C77.3473 3.85237 77.4771 3.87439 77.5974 3.92359C77.7178 3.97278 77.8259 4.04793 77.9139 4.14368C78.0019 4.23943 78.0677 4.35342 78.1065 4.47752C78.1454 4.60161 78.1564 4.73276 78.1388 4.86161C78.1212 4.99046 78.0753 5.11383 78.0046 5.22292C77.9338 5.33201 77.8398 5.42414 77.7293 5.49273C77.6188 5.56133 77.4945 5.6047 77.3654 5.61975L62.2343 10.3099C62.1517 10.3452 62.0641 10.3676 61.9747 10.3762Z" fill="#263238"/>
<path opacity="0.6" d="M82.8688 28.4133L76.8363 27.9307L75.9582 38.9074L81.9907 39.39L82.8688 28.4133Z" fill="white"/>
<path d="M83.4317 14.6407L69.291 13.5029L68.607 22.005L82.7476 23.1427L83.4317 14.6407Z" fill="white"/>
<path d="M75.7224 14.5876L69.7699 14.1086L69.1762 21.4874L75.1287 21.9663L75.7224 14.5876Z" fill="#6E38E0"/>
<path d="M82.8624 15.164L76.9099 14.6851L76.3162 22.0638L82.2688 22.5427L82.8624 15.164Z" fill="#6E38E0"/>
<path d="M103.53 16.2622L95.6283 15.6265L94.9442 24.1285L102.846 24.7643L103.53 16.2622Z" fill="white"/>
<path d="M99.197 16.4802L95.8711 16.2126L95.2774 23.5914L98.6033 23.8589L99.197 16.4802Z" fill="#6E38E0"/>
<path d="M103.186 16.7991L99.8599 16.5315L99.2662 23.9102L102.592 24.1778L103.186 16.7991Z" fill="#6E38E0"/>
<path d="M102.433 29.8477L94.5312 29.2119L93.8472 37.7139L101.749 38.3497L102.433 29.8477Z" fill="white"/>
<path d="M98.1001 30.0654L94.7742 29.7979L94.1805 37.1766L97.5064 37.4442L98.1001 30.0654Z" fill="#6E38E0"/>
<path d="M102.433 30.5538L99.0962 30.2869L98.504 37.6894L101.841 37.9564L102.433 30.5538Z" fill="#6E38E0"/>
</svg>
