<svg width="268" height="204" viewBox="0 0 268 204" fill="none" xmlns="http://www.w3.org/2000/svg">
<g clip-path="url(#clip0_588_3982)">
<path d="M265.412 161.182H233.437V203.349H265.412V161.182Z" fill="#F5F5F5"/>
<path d="M265.412 161.182H250.42V203.349H265.412V161.182Z" fill="#EBEBEB"/>
<path d="M243.014 166.89H240.139V173.874H243.014V166.89Z" fill="#EBEBEB"/>
<path d="M243.014 194.224H240.139V201.207H243.014V194.224Z" fill="#EBEBEB"/>
<path d="M250.42 176.611C250.42 176.671 246.618 176.719 241.931 176.719C237.245 176.719 233.437 176.671 233.437 176.611C233.437 176.551 237.239 176.502 241.931 176.502C246.624 176.502 250.42 176.551 250.42 176.611Z" fill="#EBEBEB"/>
<path d="M243.014 180.659H240.139V187.643H243.014V180.659Z" fill="#EBEBEB"/>
<path d="M250.42 190.386C250.42 190.446 246.618 190.494 241.931 190.494C237.245 190.494 233.437 190.446 233.437 190.386C233.437 190.326 237.239 190.271 241.931 190.271C246.624 190.271 250.42 190.326 250.42 190.386Z" fill="#EBEBEB"/>
<path d="M256.478 166.89H253.603V173.874H256.478V166.89Z" fill="#E0E0E0"/>
<path d="M262.716 166.89H259.841V173.874H262.716V166.89Z" fill="#E0E0E0"/>
<path d="M256.478 180.142H253.603V187.125H256.478V180.142Z" fill="#E0E0E0"/>
<path d="M262.716 180.142H259.841V187.125H262.716V180.142Z" fill="#E0E0E0"/>
<path d="M256.478 193.393H253.603V200.377H256.478V193.393Z" fill="#E0E0E0"/>
<path d="M262.716 193.393H259.841V200.377H262.716V193.393Z" fill="#E0E0E0"/>
<path d="M267.812 159.708H231.03V161.23H267.812V159.708Z" fill="#E0E0E0"/>
<path d="M265.634 161.374C265.634 161.435 258.487 161.483 249.674 161.483C240.861 161.483 233.713 161.435 233.713 161.374C233.713 161.314 240.861 161.266 249.674 161.266C258.487 161.266 265.634 161.314 265.634 161.374Z" fill="#F5F5F5"/>
<path d="M197.948 54.6584H140.94V203.848H197.948V54.6584Z" fill="#EBEBEB"/>
<path d="M197.942 54.6584H169.438V203.848H197.942V54.6584Z" fill="#E0E0E0"/>
<path d="M167.579 36.925H147.45V54.6579H167.579V36.925Z" fill="#EBEBEB"/>
<path d="M167.573 36.925H162.779V54.6579H167.573V36.925Z" fill="#E0E0E0"/>
<path d="M199.609 53.6233H136.188V54.6579H199.609V53.6233Z" fill="#E0E0E0"/>
<path d="M157.015 62.3938H152.19V72.5655H157.015V62.3938Z" fill="white"/>
<path d="M169.438 76.5596C169.438 76.6679 163.061 76.7521 155.192 76.7521C147.323 76.7521 140.94 76.6679 140.94 76.5596C140.94 76.4513 147.317 76.3611 155.192 76.3611C163.067 76.3611 169.438 76.4453 169.438 76.5596Z" fill="#E0E0E0"/>
<path d="M185.765 62.3938H180.941V72.5655H185.765V62.3938Z" fill="#F5F5F5"/>
<path d="M198.189 76.5596C198.189 76.6679 191.812 76.7521 183.943 76.7521C176.074 76.7521 169.691 76.6679 169.691 76.5596C169.691 76.4513 176.068 76.3611 183.943 76.3611C191.818 76.3611 198.189 76.4453 198.189 76.5596Z" fill="#EBEBEB"/>
<path d="M185.765 82.5872H180.941V92.7589H185.765V82.5872Z" fill="#F5F5F5"/>
<path d="M198.189 96.7528C198.189 96.8611 191.812 96.9513 183.943 96.9513C176.074 96.9513 169.691 96.8611 169.691 96.7528C169.691 96.6445 176.068 96.5603 183.943 96.5603C191.818 96.5603 198.189 96.6505 198.189 96.7528Z" fill="#EBEBEB"/>
<path d="M185.765 103.394H180.941V113.566H185.765V103.394Z" fill="#F5F5F5"/>
<path d="M198.189 117.559C198.189 117.667 191.812 117.758 183.943 117.758C176.074 117.758 169.691 117.667 169.691 117.559C169.691 117.451 176.068 117.367 183.943 117.367C191.818 117.367 198.189 117.457 198.189 117.559Z" fill="#EBEBEB"/>
<path d="M185.765 124.206H180.941V134.378H185.765V124.206Z" fill="#F5F5F5"/>
<path d="M198.189 138.366C198.189 138.474 191.812 138.564 183.943 138.564C176.074 138.564 169.691 138.474 169.691 138.366C169.691 138.257 176.068 138.173 183.943 138.173C191.818 138.173 198.189 138.263 198.189 138.366Z" fill="#EBEBEB"/>
<path d="M185.765 144.417H180.941V154.589H185.765V144.417Z" fill="#F5F5F5"/>
<path d="M198.189 158.583C198.189 158.685 191.812 158.776 183.943 158.776C176.074 158.776 169.691 158.685 169.691 158.583C169.691 158.481 176.068 158.385 183.943 158.385C191.818 158.385 198.189 158.475 198.189 158.583Z" fill="#EBEBEB"/>
<path d="M185.765 164.707H180.941V174.879H185.765V164.707Z" fill="#F5F5F5"/>
<path d="M185.765 185.267H180.941V195.439H185.765V185.267Z" fill="#F5F5F5"/>
<path d="M198.189 178.872C198.189 178.981 191.812 179.071 183.943 179.071C176.074 179.071 169.691 178.981 169.691 178.872C169.691 178.764 176.068 178.68 183.943 178.68C191.818 178.68 198.189 178.764 198.189 178.872Z" fill="#EBEBEB"/>
<path d="M157.015 82.8999H152.19V93.0716H157.015V82.8999Z" fill="white"/>
<path d="M169.438 97.0654C169.438 97.1677 163.061 97.2579 155.192 97.2579C147.323 97.2579 140.94 97.1677 140.94 97.0654C140.94 96.9632 147.317 96.8669 155.192 96.8669C163.067 96.8669 169.438 96.9572 169.438 97.0654Z" fill="#E0E0E0"/>
<path d="M157.015 103.406H152.19V113.577H157.015V103.406Z" fill="white"/>
<path d="M169.438 117.572C169.438 117.674 163.061 117.764 155.192 117.764C147.323 117.764 140.94 117.674 140.94 117.572C140.94 117.469 147.317 117.373 155.192 117.373C163.067 117.373 169.438 117.463 169.438 117.572Z" fill="#E0E0E0"/>
<path d="M157.015 123.911H152.19V134.083H157.015V123.911Z" fill="white"/>
<path d="M169.438 138.077C169.438 138.18 163.061 138.27 155.192 138.27C147.323 138.27 140.94 138.18 140.94 138.077C140.94 137.975 147.317 137.879 155.192 137.879C163.067 137.879 169.438 137.969 169.438 138.077Z" fill="#E0E0E0"/>
<path d="M157.015 144.417H152.19V154.589H157.015V144.417Z" fill="white"/>
<path d="M169.438 158.583C169.438 158.685 163.061 158.776 155.192 158.776C147.323 158.776 140.94 158.685 140.94 158.583C140.94 158.481 147.317 158.385 155.192 158.385C163.067 158.385 169.438 158.475 169.438 158.583Z" fill="#E0E0E0"/>
<path d="M157.015 164.923H152.19V175.095H157.015V164.923Z" fill="white"/>
<path d="M169.438 179.089C169.438 179.191 163.061 179.281 155.192 179.281C147.323 179.281 140.94 179.191 140.94 179.089C140.94 178.987 147.317 178.89 155.192 178.89C163.067 178.89 169.438 178.981 169.438 179.089Z" fill="#E0E0E0"/>
<path d="M157.015 185.429H152.19V195.601H157.015V185.429Z" fill="white"/>
<path d="M118.507 145.939H74.7945V203.589H118.507V145.939Z" fill="#EBEBEB"/>
<path d="M118.507 145.939H98.0102V203.589H118.507V145.939Z" fill="#E0E0E0"/>
<path d="M87.8844 153.741H83.9565V163.287H87.8844V153.741Z" fill="#F5F5F5"/>
<path d="M87.8844 191.113H83.9565V200.659H87.8844V191.113Z" fill="#F5F5F5"/>
<path d="M98.0103 167.041C98.0103 167.143 92.8125 167.233 86.3994 167.233C79.9863 167.233 74.7945 167.143 74.7945 167.041C74.7945 166.938 79.9923 166.842 86.3994 166.842C92.8064 166.842 98.0103 166.932 98.0103 167.041Z" fill="#F5F5F5"/>
<path d="M87.8844 172.568H83.9565V182.115H87.8844V172.568Z" fill="#F5F5F5"/>
<path d="M98.0103 185.862C98.0103 185.97 92.8125 186.06 86.3994 186.06C79.9863 186.06 74.7945 185.97 74.7945 185.862C74.7945 185.754 79.9923 185.669 86.3994 185.669C92.8064 185.669 98.0103 185.76 98.0103 185.862Z" fill="#F5F5F5"/>
<path d="M106.287 153.741H102.36V163.287H106.287V153.741Z" fill="#F5F5F5"/>
<path d="M114.818 153.741H110.89V163.287H114.818V153.741Z" fill="#F5F5F5"/>
<path d="M106.287 171.859H102.36V181.405H106.287V171.859Z" fill="#F5F5F5"/>
<path d="M114.818 171.859H110.89V181.405H114.818V171.859Z" fill="#F5F5F5"/>
<path d="M106.287 189.976H102.36V199.522H106.287V189.976Z" fill="#F5F5F5"/>
<path d="M114.818 189.976H110.89V199.522H114.818V189.976Z" fill="#F5F5F5"/>
<path d="M121.797 143.93H71.5095V146.011H121.797V143.93Z" fill="#E0E0E0"/>
<path d="M118.814 146.222C118.814 146.33 109.044 146.421 96.9935 146.421C84.9434 146.421 75.1674 146.33 75.1674 146.222C75.1674 146.114 84.9374 146.03 96.9935 146.03C109.05 146.03 118.814 146.102 118.814 146.222Z" fill="#EBEBEB"/>
<path d="M211.659 74.4546L250.384 74.641C250.384 74.641 246.714 66.2197 238.875 66.2197C232.901 66.2197 232.636 69.9371 229.045 71.0018C225.453 72.0665 217.897 65.5581 211.659 74.4546Z" fill="#EBEBEB"/>
<path d="M44.4675 33.2259L112.569 33.5087C112.569 33.5087 106.12 18.7533 92.3369 18.7473C81.833 18.7473 81.3637 25.2859 75.0589 27.1686C68.7542 29.0514 55.4648 17.5804 44.4675 33.2259Z" fill="#F5F5F5"/>
<path d="M181.055 11.156L232.366 11.3665C232.366 11.3665 227.523 0.2504 217.121 0.244385C209.204 0.244385 208.855 5.17085 204.102 6.57841C199.35 7.98597 189.321 -0.633838 181.055 11.156Z" fill="#FAFAFA"/>
<path d="M271.65 203.366C271.65 203.457 208.41 203.523 130.418 203.523C52.4267 203.523 -10.8257 203.457 -10.8257 203.366C-10.8257 203.276 52.3966 203.21 130.418 203.21C208.44 203.21 271.65 203.282 271.65 203.366Z" fill="#263238"/>
<path d="M242.726 116.056H209.391V203.294H242.726V116.056Z" fill="#455A64"/>
<path d="M242.72 116.056H226.055V203.294H242.72V116.056Z" fill="#263238"/>
<path d="M224.972 105.686H213.199V116.056H224.972V105.686Z" fill="#455A64"/>
<path d="M224.966 105.686H222.163V116.056H224.966V105.686Z" fill="#263238"/>
<path d="M243.7 115.448H206.611V116.055H243.7V115.448Z" fill="#455A64"/>
<path d="M218.793 120.579H215.972V126.528H218.793V120.579Z" fill="#263238"/>
<path d="M226.055 128.862C226.055 128.922 222.325 128.976 217.723 128.976C213.121 128.976 209.391 128.922 209.391 128.862C209.391 128.802 213.121 128.748 217.723 128.748C222.325 128.748 226.055 128.778 226.055 128.862Z" fill="#263238"/>
<path d="M235.602 120.579H232.781V126.528H235.602V120.579Z" fill="#455A64"/>
<path d="M242.87 128.862C242.87 128.922 239.14 128.976 234.538 128.976C229.936 128.976 226.206 128.922 226.206 128.862C226.206 128.802 229.936 128.748 234.538 128.748C239.14 128.748 242.87 128.778 242.87 128.862Z" fill="#455A64"/>
<path d="M235.602 132.387H232.781V138.336H235.602V132.387Z" fill="#455A64"/>
<path d="M242.87 140.67C242.87 140.736 239.14 140.784 234.538 140.784C229.936 140.784 226.206 140.736 226.206 140.67C226.206 140.604 229.936 140.556 234.538 140.556C239.14 140.556 242.87 140.61 242.87 140.67Z" fill="#455A64"/>
<path d="M235.602 144.556H232.781V150.505H235.602V144.556Z" fill="#455A64"/>
<path d="M242.87 152.839C242.87 152.899 239.14 152.953 234.538 152.953C229.936 152.953 226.206 152.899 226.206 152.839C226.206 152.779 229.936 152.724 234.538 152.724C239.14 152.724 242.87 152.772 242.87 152.839Z" fill="#455A64"/>
<path d="M235.602 156.719H232.781V162.668H235.602V156.719Z" fill="#455A64"/>
<path d="M242.87 165.002C242.87 165.068 239.14 165.116 234.538 165.116C229.936 165.116 226.206 165.068 226.206 165.002C226.206 164.935 229.936 164.893 234.538 164.893C239.14 164.893 242.87 164.941 242.87 165.002Z" fill="#455A64"/>
<path d="M235.602 168.539H232.781V174.488H235.602V168.539Z" fill="#455A64"/>
<path d="M242.87 176.822C242.87 176.888 239.14 176.936 234.538 176.936C229.936 176.936 226.206 176.888 226.206 176.822C226.206 176.755 229.936 176.707 234.538 176.707C239.14 176.707 242.87 176.761 242.87 176.822Z" fill="#455A64"/>
<path d="M235.602 180.406H232.781V186.356H235.602V180.406Z" fill="#455A64"/>
<path d="M235.602 192.431H232.781V198.38H235.602V192.431Z" fill="#455A64"/>
<path d="M242.87 188.689C242.87 188.756 239.14 188.804 234.538 188.804C229.936 188.804 226.206 188.756 226.206 188.689C226.206 188.623 229.936 188.575 234.538 188.575C239.14 188.575 242.87 188.629 242.87 188.689Z" fill="#455A64"/>
<path d="M218.793 132.567H215.972V138.516H218.793V132.567Z" fill="#263238"/>
<path d="M226.055 140.85C226.055 140.911 222.325 140.965 217.723 140.965C213.121 140.965 209.391 140.911 209.391 140.85C209.391 140.79 213.121 140.736 217.723 140.736C222.325 140.736 226.055 140.808 226.055 140.85Z" fill="#263238"/>
<path d="M218.793 144.556H215.972V150.505H218.793V144.556Z" fill="#263238"/>
<path d="M226.055 152.839C226.055 152.905 222.325 152.953 217.723 152.953C213.121 152.953 209.391 152.905 209.391 152.839C209.391 152.773 213.121 152.731 217.723 152.731C222.325 152.731 226.055 152.779 226.055 152.839Z" fill="#263238"/>
<path d="M218.793 156.55H215.972V162.499H218.793V156.55Z" fill="#263238"/>
<path d="M226.055 164.833C226.055 164.893 222.325 164.948 217.723 164.948C213.121 164.948 209.391 164.893 209.391 164.833C209.391 164.773 213.121 164.719 217.723 164.719C222.325 164.719 226.055 164.767 226.055 164.833Z" fill="#263238"/>
<path d="M218.793 168.539H215.972V174.488H218.793V168.539Z" fill="#263238"/>
<path d="M226.055 176.822C226.055 176.888 222.325 176.936 217.723 176.936C213.121 176.936 209.391 176.888 209.391 176.822C209.391 176.755 213.121 176.707 217.723 176.707C222.325 176.707 226.055 176.761 226.055 176.822Z" fill="#263238"/>
<path d="M218.793 180.533H215.972V186.482H218.793V180.533Z" fill="#263238"/>
<path d="M226.055 188.816C226.055 188.876 222.325 188.93 217.723 188.93C213.121 188.93 209.391 188.876 209.391 188.816C209.391 188.756 213.121 188.701 217.723 188.701C222.325 188.701 226.055 188.75 226.055 188.816Z" fill="#263238"/>
<path d="M218.793 192.521H215.972V198.47H218.793V192.521Z" fill="#263238"/>
<path d="M159.253 84.8787H114.656V203.33H159.253V84.8787Z" fill="#455A64"/>
<path d="M159.259 84.8787H142.144V203.33H159.259V84.8787Z" fill="#263238"/>
<path d="M152.395 94.2266H149.008V101.373H152.395V94.2266Z" fill="#455A64"/>
<path d="M152.395 106.762H149.008V113.908H152.395V106.762Z" fill="#455A64"/>
<path d="M152.395 120.802H149.008V127.948H152.395V120.802Z" fill="#455A64"/>
<path d="M152.395 134.216H149.008V141.362H152.395V134.216Z" fill="#455A64"/>
<path d="M152.395 147.636H149.008V154.782H152.395V147.636Z" fill="#455A64"/>
<path d="M152.395 161.05H149.008V168.196H152.395V161.05Z" fill="#455A64"/>
<path d="M152.395 174.47H149.008V181.616H152.395V174.47Z" fill="#455A64"/>
<path d="M152.395 189.219H149.008V196.365H152.395V189.219Z" fill="#455A64"/>
<path d="M161.479 84.1328H110.776V85.5163H161.479V84.1328Z" fill="#263238"/>
<path d="M150.705 75.7957H132.651V84.8245H150.705V75.7957Z" fill="#263238"/>
<path d="M142.143 75.7957H132.651V84.1327H142.143V75.7957Z" fill="#455A64"/>
<path d="M124.39 93.9316H121.003V101.078H124.39V93.9316Z" fill="#263238"/>
<path d="M133.414 93.9316H130.027V101.078H133.414V93.9316Z" fill="#263238"/>
<path d="M124.39 107.544H121.003V114.69H124.39V107.544Z" fill="#263238"/>
<path d="M133.414 107.544H130.027V114.69H133.414V107.544Z" fill="#263238"/>
<path d="M124.39 121.156H121.003V128.303H124.39V121.156Z" fill="#263238"/>
<path d="M133.414 121.156H130.027V128.303H133.414V121.156Z" fill="#263238"/>
<path d="M124.39 134.769H121.003V141.915H124.39V134.769Z" fill="#263238"/>
<path d="M133.414 134.769H130.027V141.915H133.414V134.769Z" fill="#263238"/>
<path d="M124.39 148.382H121.003V155.528H124.39V148.382Z" fill="#263238"/>
<path d="M133.414 148.382H130.027V155.528H133.414V148.382Z" fill="#263238"/>
<path d="M124.39 161.994H121.003V169.14H124.39V161.994Z" fill="#263238"/>
<path d="M133.414 161.994H130.027V169.14H133.414V161.994Z" fill="#263238"/>
<path d="M124.39 175.606H121.003V182.753H124.39V175.606Z" fill="#263238"/>
<path d="M133.414 175.606H130.027V182.753H133.414V175.606Z" fill="#263238"/>
<path d="M124.39 189.219H121.003V196.365H124.39V189.219Z" fill="#263238"/>
<path d="M133.414 189.219H130.027V196.365H133.414V189.219Z" fill="#263238"/>
<path d="M142.144 103.881C142.144 104.001 135.989 104.097 128.403 104.097C120.817 104.097 114.656 104.001 114.656 103.881C114.656 103.761 120.811 103.67 128.403 103.67C135.995 103.67 142.144 103.767 142.144 103.881Z" fill="#263238"/>
<path d="M142.144 117.542C142.144 117.662 135.989 117.758 128.403 117.758C120.817 117.758 114.656 117.662 114.656 117.542C114.656 117.421 120.811 117.331 128.403 117.331C135.995 117.331 142.144 117.427 142.144 117.542Z" fill="#263238"/>
<path d="M142.144 131.371C142.144 131.485 135.989 131.581 128.403 131.581C120.817 131.581 114.656 131.485 114.656 131.371C114.656 131.256 120.811 131.154 128.403 131.154C135.995 131.154 142.144 131.25 142.144 131.371Z" fill="#263238"/>
<path d="M142.144 145.097C142.144 145.212 135.989 145.308 128.403 145.308C120.817 145.308 114.656 145.212 114.656 145.097C114.656 144.983 120.811 144.881 128.403 144.881C135.995 144.881 142.144 144.977 142.144 145.097Z" fill="#263238"/>
<path d="M142.144 158.625C142.144 158.74 135.989 158.836 128.403 158.836C120.817 158.836 114.656 158.74 114.656 158.625C114.656 158.511 120.811 158.409 128.403 158.409C135.995 158.409 142.144 158.505 142.144 158.625Z" fill="#263238"/>
<path d="M142.144 171.787C142.144 171.901 135.989 171.997 128.403 171.997C120.817 171.997 114.656 171.901 114.656 171.787C114.656 171.673 120.811 171.57 128.403 171.57C135.995 171.57 142.144 171.667 142.144 171.787Z" fill="#263238"/>
<path d="M142.144 186.373C142.144 186.488 135.989 186.584 128.403 186.584C120.817 186.584 114.656 186.488 114.656 186.373C114.656 186.259 120.811 186.157 128.403 186.157C135.995 186.157 142.144 186.253 142.144 186.373Z" fill="#263238"/>
<path d="M159.061 103.881C159.061 104.001 155.397 104.097 150.879 104.097C146.361 104.097 142.697 104.001 142.697 103.881C142.697 103.761 146.355 103.67 150.879 103.67C155.403 103.67 159.061 103.767 159.061 103.881Z" fill="#455A64"/>
<path d="M159.061 117.542C159.061 117.662 155.397 117.758 150.879 117.758C146.361 117.758 142.697 117.662 142.697 117.542C142.697 117.421 146.355 117.331 150.879 117.331C155.403 117.331 159.061 117.427 159.061 117.542Z" fill="#455A64"/>
<path d="M159.061 131.184C159.061 131.304 155.397 131.401 150.879 131.401C146.361 131.401 142.697 131.323 142.697 131.184C142.697 131.046 146.355 130.974 150.879 130.974C155.403 130.974 159.061 131.088 159.061 131.184Z" fill="#455A64"/>
<path d="M158.88 145.097C158.88 145.212 155.217 145.308 150.699 145.308C146.18 145.308 142.517 145.212 142.517 145.097C142.517 144.983 146.18 144.881 150.699 144.881C155.217 144.881 158.88 144.977 158.88 145.097Z" fill="#455A64"/>
<path d="M158.88 158.625C158.88 158.74 155.217 158.836 150.699 158.836C146.18 158.836 142.517 158.74 142.517 158.625C142.517 158.511 146.18 158.409 150.699 158.409C155.217 158.409 158.88 158.505 158.88 158.625Z" fill="#455A64"/>
<path d="M158.88 172.154C158.88 172.268 155.217 172.364 150.699 172.364C146.18 172.364 142.517 172.268 142.517 172.154C142.517 172.04 146.18 171.937 150.699 171.937C155.217 171.937 158.88 172.033 158.88 172.154Z" fill="#455A64"/>
<path d="M158.88 186.373C158.88 186.488 155.217 186.584 150.699 186.584C146.18 186.584 142.517 186.488 142.517 186.373C142.517 186.259 146.18 186.157 150.699 186.157C155.217 186.157 158.88 186.253 158.88 186.373Z" fill="#455A64"/>
<path d="M167.483 162.108H149.501V203.366H167.483V162.108Z" fill="#6E38E0"/>
<path opacity="0.2" d="M167.483 162.108H149.501V203.366H167.483V162.108Z" fill="black"/>
<path d="M145.296 161.94H189.664L197.954 150.174L206.641 162.277L216.857 162.114L205.847 147.287L156.378 147.497L145.296 161.94Z" fill="#6E38E0"/>
<path opacity="0.2" d="M145.296 161.94H189.664L197.954 150.174L206.641 162.277L216.857 162.114L205.847 147.287L156.378 147.497L145.296 161.94Z" fill="white"/>
<path d="M167.483 162.114V203.366H211.791V162.114H206.708L197.954 150.174L189.634 161.927L167.483 162.114Z" fill="#6E38E0"/>
<g opacity="0.2">
<path d="M173.746 203.366V185.483H184.105V203.366" fill="black"/>
</g>
<path opacity="0.7" d="M206.648 184.978H190.32V195.09H206.648V184.978Z" fill="white"/>
<path opacity="0.7" d="M206.648 164.743H190.32V174.854H206.648V164.743Z" fill="white"/>
<path opacity="0.7" d="M183.022 164.833H172.729V174.578H183.022V164.833Z" fill="white"/>
<path d="M195.108 184.978H194.958V195.186H195.108V184.978Z" fill="#6E38E0"/>
<path d="M201.895 184.978H201.744V195.186H201.895V184.978Z" fill="#6E38E0"/>
<path d="M201.816 190.313H195.031V190.463H201.816V190.313Z" fill="#6E38E0"/>
<path d="M195.108 164.743H194.958V174.951H195.108V164.743Z" fill="#6E38E0"/>
<path d="M201.895 164.743H201.744V174.951H201.895V164.743Z" fill="#6E38E0"/>
<path d="M201.816 170.078H195.031V170.228H201.816V170.078Z" fill="#6E38E0"/>
<path d="M177.951 164.833H177.801V174.578H177.951V164.833Z" fill="#6E38E0"/>
<path d="M183.022 169.867H172.729V170.018H183.022V169.867Z" fill="#6E38E0"/>
<path opacity="0.7" d="M200.113 158.048C200.113 158.48 199.985 158.902 199.745 159.261C199.505 159.62 199.164 159.9 198.765 160.065C198.366 160.231 197.927 160.274 197.504 160.19C197.08 160.105 196.691 159.897 196.386 159.592C196.08 159.287 195.873 158.898 195.788 158.474C195.704 158.05 195.747 157.611 195.913 157.212C196.078 156.813 196.358 156.472 196.717 156.232C197.076 155.993 197.498 155.865 197.93 155.865C198.508 155.866 199.063 156.097 199.472 156.506C199.881 156.915 200.112 157.469 200.113 158.048Z" fill="white"/>
<path d="M182.354 155.371L185.109 151.973V143.798H179.341V155.431L182.354 155.371Z" fill="#6E38E0"/>
<path opacity="0.2" d="M182.355 155.371V143.798H185.11V151.973L182.355 155.371Z" fill="black"/>
<path d="M185.5 142.594H178.697V143.798H185.5V142.594Z" fill="#6E38E0"/>
<path d="M167.994 180.16H134.022V203.372H167.994V180.16Z" fill="#6E38E0"/>
<path opacity="0.2" d="M154.97 180.16H134.022V203.372H154.97V180.16Z" fill="black"/>
<path d="M150.56 203.33C150.537 203.232 150.527 203.131 150.53 203.03C150.53 202.795 150.53 202.506 150.53 202.158C150.53 201.351 150.53 200.257 150.482 198.891C150.482 196.064 150.446 192.16 150.422 187.643L150.59 187.811H138.155L138.317 187.643C138.317 192.16 138.275 196.064 138.257 198.891C138.257 200.257 138.221 201.351 138.209 202.158C138.209 202.506 138.209 202.795 138.179 203.03C138.189 203.13 138.189 203.231 138.179 203.33C138.152 203.233 138.142 203.131 138.149 203.03C138.149 202.795 138.149 202.506 138.149 202.158C138.149 201.351 138.149 200.257 138.101 198.891C138.101 196.07 138.065 192.16 138.041 187.643V187.474H150.783V187.643C150.753 192.16 150.735 196.064 150.716 198.891C150.716 200.257 150.68 201.351 150.668 202.158C150.668 202.506 150.668 202.795 150.668 203.03C150.642 203.133 150.606 203.234 150.56 203.33Z" fill="#263238"/>
<path opacity="0.2" d="M166.417 187.047H157.593V189.296H166.417V187.047Z" fill="black"/>
<path d="M145.296 161.94V163.137H189.634V161.928L145.296 161.94Z" fill="#6E38E0"/>
<path d="M189.634 163.136L197.929 151.497L197.953 150.174L189.664 161.939L189.634 163.136Z" fill="#6E38E0"/>
<path d="M216.639 162.108H206.708V162.878H216.639V162.108Z" fill="#6E38E0"/>
<path d="M180.574 182.74H176.91V184.136H180.574V182.74Z" fill="#263238"/>
<path opacity="0.3" d="M145.296 161.94V163.137H189.634V161.928L145.296 161.94Z" fill="black"/>
<path opacity="0.3" d="M189.634 163.136L197.929 151.497L197.953 150.174L189.664 161.939L189.634 163.136Z" fill="black"/>
<path opacity="0.3" d="M216.639 162.108H206.708V162.878H216.639V162.108Z" fill="black"/>
<path d="M183.269 194.506C183.239 194.506 183.269 194.277 182.998 194.103C182.929 194.056 182.85 194.027 182.767 194.017C182.685 194.008 182.601 194.019 182.523 194.049C182.432 194.085 182.354 194.149 182.299 194.23C182.244 194.312 182.215 194.408 182.215 194.506C182.215 194.604 182.244 194.7 182.299 194.781C182.354 194.863 182.432 194.926 182.523 194.963C182.601 194.993 182.685 195.003 182.767 194.994C182.85 194.985 182.929 194.955 182.998 194.909C183.245 194.734 183.239 194.5 183.269 194.506C183.299 194.512 183.371 194.764 183.089 195.029C183.002 195.1 182.898 195.148 182.788 195.168C182.677 195.188 182.563 195.179 182.457 195.143C182.324 195.098 182.208 195.012 182.127 194.898C182.045 194.783 182.001 194.646 182.001 194.506C182.001 194.365 182.045 194.228 182.127 194.114C182.208 193.999 182.324 193.914 182.457 193.868C182.563 193.832 182.677 193.824 182.788 193.844C182.898 193.864 183.002 193.911 183.089 193.982C183.371 194.253 183.287 194.524 183.269 194.506Z" fill="#263238"/>
<path d="M98.9303 134.997C98.9303 134.997 89.5995 170.487 77.0561 177.152C68.7901 181.543 61.4927 176.304 56.6016 168.003L38.9145 139.539C38.4637 137.917 38.6483 136.184 39.4307 134.693C40.2131 133.202 41.5345 132.065 43.1258 131.515L57.871 126.372L72.5621 152.556L91.3622 129.698" fill="#EB996E"/>
<path d="M7.12009 137.47C7.44496 139.779 13.2624 156.76 13.2624 156.76C13.2624 156.76 39.6607 149.296 39.384 147.984C39.1554 146.92 35.0284 130.005 29.5177 120.471C28.4847 118.633 27.0359 117.062 25.2872 115.884C23.5386 114.706 21.5385 113.953 19.4469 113.685C18.2798 113.553 15.6869 114.636 14.971 114.991C9.35204 117.8 4.6054 119.629 7.12009 137.47Z" fill="#455A64"/>
<path d="M48.5105 112.537C58.6475 115.358 59.1047 119.965 64.1822 128.092L72.1775 142.649L58.8581 151.136L56.4156 156.61L55.098 203.685L1.42915 203.42L11.0548 165.314L7.21656 140.291C6.86161 136.345 5.72458 128.97 6.93982 125.162C10.748 113.264 24.9518 111.995 33.687 110.191C35.4918 109.818 37.2305 110.389 38.6984 110.834" fill="#455A64"/>
<path d="M56.2828 159.028C56.2411 158.629 56.2291 158.226 56.2467 157.825C56.2467 156.983 56.2467 155.864 56.2889 154.517V154.487C56.9598 153.295 57.5448 152.057 58.0393 150.781C58.6562 149.268 58.8111 147.606 58.4844 146.005C58.0513 144.201 57.0528 142.685 56.3851 141.193C55.7788 139.856 55.3734 138.438 55.1821 136.982C55.0562 136.011 55.03 135.03 55.1039 134.053C55.1039 133.704 55.17 133.451 55.2001 133.259C55.206 133.166 55.2284 133.074 55.2663 132.988C55.2875 133.345 55.2875 133.702 55.2663 134.059C55.2416 135.025 55.304 135.991 55.4527 136.946C55.6715 138.362 56.0908 139.739 56.6979 141.037C57.3596 142.504 58.3821 144.044 58.8393 145.909C59.1836 147.575 59.018 149.307 58.3641 150.878C57.8579 152.161 57.2547 153.403 56.5595 154.595V154.535C56.4934 155.882 56.4452 157.001 56.4031 157.843C56.3985 158.241 56.3582 158.638 56.2828 159.028Z" fill="#263238"/>
<path d="M48.9315 110.882C48.9775 110.998 49.0078 111.119 49.0217 111.243C49.0867 111.595 49.1269 111.951 49.142 112.308C49.1901 113.632 48.9691 114.952 48.4923 116.188C47.7856 118.034 46.5668 119.641 44.9789 120.819C42.9892 122.237 40.5503 122.878 38.1207 122.624C36.872 122.496 35.6527 122.165 34.5111 121.643C33.4558 121.148 32.4869 120.485 31.6414 119.683C30.2274 118.314 29.1503 116.636 28.4951 114.78C28.0513 113.538 27.7978 112.236 27.7431 110.918C27.7203 110.562 27.7203 110.204 27.7431 109.848C27.7391 109.724 27.7512 109.601 27.7792 109.481C27.8213 109.481 27.7792 109.992 27.8634 110.912C27.9704 112.207 28.2559 113.48 28.7116 114.696C29.3808 116.499 30.4552 118.125 31.852 119.448C32.6744 120.222 33.6172 120.858 34.6434 121.331C35.7472 121.834 36.9259 122.153 38.1327 122.275C40.4704 122.529 42.8211 121.929 44.7503 120.585C46.0475 119.634 47.104 118.393 47.8353 116.961C48.5665 115.529 48.9523 113.946 48.9616 112.338C49.0037 111.394 48.8894 110.888 48.9315 110.882Z" fill="#263238"/>
<path d="M69.7469 138.252C69.2469 138.626 68.7156 138.956 68.1587 139.238C67.166 139.84 65.7824 140.61 64.2784 141.518C62.7743 142.427 61.4328 143.275 60.4582 143.888C59.9502 144.251 59.4106 144.567 58.8459 144.833C59.301 144.403 59.7967 144.018 60.3258 143.684C61.2643 143.016 62.5939 142.132 64.1039 141.217C65.6139 140.303 67.0156 139.545 68.0444 139.022C68.5839 138.707 69.1544 138.449 69.7469 138.252Z" fill="#263238"/>
<path d="M8.76858 138.878C8.76858 138.878 8.80467 138.986 8.87085 139.196L9.12352 140.135L10.068 143.744C10.8682 146.872 12.0112 151.335 13.4009 156.743L13.2264 156.647L38.0485 148.893L38.6501 148.67L38.5358 148.869C37.3416 143.311 35.7081 137.856 33.6508 132.556C31.7257 127.695 29.5178 123.479 27.0332 120.441C25.9258 119.059 24.5986 117.868 23.1048 116.916C21.9831 116.189 20.7046 115.74 19.3748 115.605C19.1202 115.563 18.8628 115.541 18.6048 115.539L17.9189 115.575C17.7084 115.575 17.5159 115.575 17.3173 115.617L16.8481 115.719L16.1984 115.851C16.1249 115.868 16.0506 115.88 15.9758 115.887C16.043 115.855 16.1136 115.831 16.1863 115.815L16.83 115.653L17.3053 115.533C17.4858 115.496 17.6843 115.496 17.9069 115.472L18.5988 115.424C18.8601 115.421 19.1214 115.435 19.3808 115.466C20.7362 115.583 22.0439 116.023 23.195 116.748C24.7118 117.692 26.0617 118.881 27.1896 120.267C29.7585 123.316 32.0024 127.545 33.9456 132.417C36.0249 137.73 37.6745 143.202 38.8788 148.779V148.929L38.7344 148.977L38.1328 149.2C28.826 152.153 20.205 154.758 13.2686 156.893L13.1302 156.935L13.0941 156.797C11.7525 151.383 10.6516 146.902 9.87553 143.768C9.50253 142.222 9.21376 141.007 9.00922 140.159L8.79264 139.214C8.77046 139.104 8.76238 138.99 8.76858 138.878Z" fill="#263238"/>
<path d="M37.7959 145.488C37.7959 145.584 32.0927 147.239 24.9998 149.194C17.9069 151.149 12.1496 152.652 12.1496 152.562C12.1496 152.472 17.8467 150.812 24.9396 148.857C32.0325 146.902 37.7658 145.398 37.7959 145.488Z" fill="#263238"/>
<path d="M35.6122 68.4873C33.9698 64.9263 29.4518 63.248 25.6437 64.1924C21.8355 65.1368 18.8275 68.2467 17.2212 71.8137C15.615 75.3807 15.1878 79.3929 15.1577 83.3148C15.1577 85.39 15.248 87.4893 14.8269 89.5225C14.4057 91.5556 13.4071 93.5647 11.6624 94.6956C10.2908 95.5858 8.6063 95.8505 7.13237 96.5603C5.65845 97.2701 4.30484 98.7799 4.67182 100.38C5.10497 102.287 7.49935 102.858 9.44252 103.057C9.47516 104.234 9.8399 105.377 10.4947 106.356C11.1494 107.334 12.0675 108.108 13.143 108.587C14.2185 109.066 15.4076 109.231 16.5731 109.064C17.7385 108.896 18.8329 108.403 19.7299 107.64C19.1283 110.046 21.252 112.525 23.6945 112.813C26.137 113.102 28.5073 111.574 29.8669 109.505C31.2265 107.436 31.6115 104.909 31.7138 102.449C31.8161 99.989 31.6416 97.4987 31.8823 95.0926" fill="#6E38E0"/>
<path d="M63.3279 72.9686C63.3279 72.9686 65.1327 60.878 48.4924 60.6554C29.8788 60.4088 26.5219 76.295 29.7104 84.6622L38.963 75.495L63.3279 72.9686Z" fill="#6E38E0"/>
<path d="M48.7268 112.537C48.9133 109.318 49.0517 106.696 49.0517 106.696C49.0517 106.696 58.5811 106.918 59.9828 98.6595C61.3845 90.4006 62.9908 71.1639 62.9908 71.1639C58.8283 68.4725 53.9596 67.079 49.0032 67.1604C44.0469 67.2418 39.2265 68.7944 35.1547 71.6211L34.3726 72.1624L28.3566 110.353C27.9275 113.031 28.5765 115.769 30.1617 117.97C31.7468 120.17 34.1391 121.653 36.8151 122.095C38.2368 122.329 39.6921 122.262 41.0859 121.896C42.4798 121.531 43.781 120.876 44.9049 119.974C46.0287 119.073 46.9499 117.944 47.6084 116.663C48.2669 115.381 48.648 113.975 48.7268 112.537Z" fill="#FFBE9D"/>
<path d="M59.5916 85.823C59.5597 86.0254 59.4692 86.214 59.3312 86.3655C59.1931 86.5169 59.0137 86.6245 58.8151 86.6749C58.6165 86.7253 58.4074 86.7163 58.2139 86.649C58.0203 86.5817 57.8508 86.4591 57.7263 86.2964C57.6018 86.1336 57.5278 85.9379 57.5135 85.7335C57.4992 85.5291 57.5452 85.325 57.6458 85.1465C57.7464 84.968 57.8972 84.8229 58.0795 84.7293C58.2618 84.6357 58.4675 84.5977 58.6712 84.62C58.8113 84.6369 58.9466 84.6818 59.0691 84.7518C59.1917 84.8218 59.299 84.9156 59.3847 85.0277C59.4704 85.1398 59.5329 85.2679 59.5684 85.4045C59.604 85.541 59.6118 85.6833 59.5916 85.823Z" fill="#263238"/>
<path d="M60.3612 84.8305C60.2108 84.9568 59.5191 84.229 58.4062 84.0184C57.2934 83.8079 56.3972 84.2951 56.3009 84.1327C56.2047 83.9703 56.4152 83.8199 56.8122 83.5974C57.3366 83.3222 57.9375 83.2291 58.5205 83.3327C59.1065 83.4322 59.6434 83.7218 60.0484 84.1568C60.3552 84.4997 60.4334 84.7764 60.3612 84.8305Z" fill="#263238"/>
<path d="M48.4197 84.7527C48.4154 84.8969 48.3813 85.0386 48.3196 85.1689C48.2579 85.2992 48.1699 85.4154 48.0612 85.5102C47.9525 85.6049 47.8254 85.6762 47.6879 85.7195C47.5503 85.7628 47.4053 85.7772 47.2619 85.7618C47.1186 85.7465 46.9799 85.7016 46.8547 85.6301C46.7294 85.5586 46.6203 85.462 46.5342 85.3464C46.448 85.2308 46.3867 85.0986 46.3541 84.9581C46.3214 84.8177 46.3181 84.672 46.3445 84.5302C46.3488 84.3861 46.3829 84.2444 46.4446 84.114C46.5063 83.9837 46.5942 83.8675 46.7029 83.7728C46.8116 83.678 46.9388 83.6068 47.0763 83.5635C47.2139 83.5201 47.3589 83.5057 47.5022 83.5211C47.6456 83.5365 47.7843 83.5813 47.9095 83.6528C48.0347 83.7243 48.1439 83.8209 48.23 83.9365C48.3161 84.0522 48.3775 84.1844 48.4101 84.3248C48.4427 84.4653 48.446 84.611 48.4197 84.7527Z" fill="#263238"/>
<path d="M48.9728 83.8142C48.8285 83.9405 48.1307 83.1826 47.0239 83.0021C45.9171 82.8216 45.0148 83.2788 44.9126 83.1104C44.8645 83.0382 45.0329 82.7976 45.4299 82.581C45.9541 82.3054 46.5552 82.2123 47.1382 82.3164C47.7245 82.415 48.2616 82.7048 48.6661 83.1405C48.9668 83.4773 49.045 83.76 48.9728 83.8142Z" fill="#263238"/>
<path d="M50.4114 92.4161C51.0301 92.3779 51.6511 92.4224 52.2581 92.5484C52.5468 92.5905 52.8235 92.6025 52.9197 92.41C53.0052 92.1051 53.0052 91.7826 52.9197 91.4777C52.8295 90.6837 52.7393 89.8536 52.643 88.9814C52.2881 85.4324 52.1077 82.5511 52.24 82.533C52.3723 82.515 52.7694 85.3782 53.1303 88.9272C53.2085 89.7994 53.2867 90.6295 53.3588 91.4235C53.4456 91.8289 53.397 92.2515 53.2205 92.6266C53.1576 92.7183 53.0744 92.7942 52.9774 92.8485C52.8804 92.9027 52.7721 92.9338 52.6611 92.9394C52.497 92.9423 52.3333 92.9241 52.1738 92.8852C51.5677 92.81 50.9747 92.6522 50.4114 92.4161Z" fill="#263238"/>
<path d="M49.0818 106.696C45.2347 106.104 41.6432 104.405 38.7463 101.806C38.7463 101.806 40.7677 108.374 48.9314 108.916L49.0818 106.696Z" fill="#EB996E"/>
<path d="M49.3221 95.6938C49.2982 95.3343 49.1865 94.9861 48.9966 94.6799C48.8068 94.3737 48.5447 94.1187 48.2334 93.9374C48.0181 93.8091 47.7777 93.7288 47.5286 93.7018C47.2795 93.6748 47.0275 93.7018 46.7897 93.781C46.555 93.8683 46.3518 94.0238 46.206 94.2274C46.0603 94.431 45.9787 94.6735 45.9716 94.9238C46.0064 95.2013 46.121 95.4627 46.3014 95.6762C46.4819 95.8898 46.7205 96.0463 46.9882 96.1269C47.5326 96.2764 48.1025 96.3092 48.6604 96.2231C48.816 96.2186 48.9692 96.1838 49.1116 96.1209C49.1811 96.0867 49.2395 96.0335 49.2799 95.9675C49.3204 95.9015 49.3413 95.8254 49.3402 95.7479" fill="#EB996E"/>
<path d="M46.8922 92.6863C46.814 92.6863 46.6335 92.963 46.6034 93.5104C46.5818 94.2368 46.8239 94.9465 47.285 95.5083C47.7461 96.07 48.395 96.4458 49.1118 96.5661C49.6592 96.6443 49.984 96.524 49.978 96.4398C49.978 96.2533 48.6907 96.1871 47.7944 95.0924C46.8982 93.9976 47.0726 92.7164 46.8922 92.6863Z" fill="#263238"/>
<path d="M33.2048 82.9358C33.0785 82.8456 28.4648 80.8546 27.1475 86.2863C25.8301 91.7181 32.1341 91.1647 32.1822 91.0083C32.2303 90.8519 33.2048 82.9358 33.2048 82.9358Z" fill="#FFBE9D"/>
<path d="M30.8891 88.7286C30.8891 88.7286 30.7748 88.7707 30.5823 88.8068C30.3205 88.8517 30.0513 88.8004 29.8244 88.6624C29.2589 88.3195 28.9642 87.303 29.1747 86.3165C29.27 85.8438 29.4761 85.4006 29.7763 85.0232C29.8767 84.8614 30.0142 84.7258 30.1773 84.6275C30.3405 84.5292 30.5246 84.471 30.7146 84.4578C30.8343 84.4519 30.9523 84.4868 31.0496 84.5567C31.1468 84.6266 31.2175 84.7275 31.25 84.8427C31.2921 85.0112 31.25 85.1134 31.25 85.1315C31.25 85.1495 31.3943 85.0653 31.4064 84.8307C31.4033 84.6887 31.35 84.5523 31.256 84.4457C31.1207 84.2962 30.9336 84.2037 30.7327 84.1871C30.4891 84.177 30.2467 84.2265 30.0265 84.3313C29.8064 84.4361 29.6152 84.5931 29.4695 84.7886C29.1123 85.1999 28.8642 85.6942 28.7476 86.2262C28.5191 87.333 28.868 88.4819 29.6559 88.885C29.804 88.9599 29.9659 89.0033 30.1315 89.0127C30.2971 89.022 30.4629 88.9969 30.6184 88.9391C30.847 88.8549 30.9071 88.7406 30.8891 88.7286Z" fill="#EB996E"/>
<path d="M61.1019 67.3562C62.0584 68.0482 62.7767 69.0196 63.1581 70.1368C63.5395 71.2539 63.5652 72.4617 63.2316 73.594C62.4134 76.1926 59.989 79.0077 53.251 78.9175L54.7851 77.2152C53.2691 78.3716 51.4974 79.1468 49.6191 79.4755C47.7408 79.8042 45.8111 79.6768 43.9924 79.104L45.8814 75.4467C45.8814 75.4467 37.3627 84.4756 32.6041 84.8665L33.2057 75.2422C34.3547 66.1592 38.2471 63.4343 44.1368 62.9471C46.3243 62.7483 48.5269 62.7866 50.7063 63.0614C54.4787 63.5919 58.0552 65.0695 61.1019 67.3562Z" fill="#6E38E0"/>
<path d="M27.7911 59.4888C28.2395 59.5977 28.6651 59.7851 29.0483 60.0422C30.9828 61.1722 32.5191 62.8746 33.4454 64.9145C33.6608 65.3217 33.8033 65.7635 33.8665 66.2198C33.7642 66.2679 33.0905 64.2528 31.3642 62.3701C29.6378 60.4873 27.731 59.6031 27.7911 59.4888Z" fill="#6E38E0"/>
<path d="M10.6395 90.2804C10.6395 90.2804 10.5252 90.16 10.2665 89.9976C9.88273 89.766 9.43901 89.653 8.99115 89.6728C8.64436 89.6814 8.30352 89.7649 7.992 89.9175C7.68049 90.0701 7.40566 90.2883 7.18635 90.5571C6.92113 90.9332 6.75508 91.3702 6.70356 91.8276C6.65203 92.285 6.71669 92.7479 6.89156 93.1737C7.10499 93.6852 7.44907 94.1317 7.88934 94.4684C8.32961 94.8052 8.85063 95.0204 9.40024 95.0925C10.0366 95.1893 10.6865 95.1451 11.304 94.9632C11.9215 94.7813 12.4915 94.4661 12.9738 94.0399C14.0802 93.1129 14.8448 91.8424 15.1455 90.4307C15.305 89.6934 15.305 88.9304 15.1455 88.1931C14.9639 87.4283 14.6934 86.6874 14.3394 85.9855C14.0025 85.2576 13.6415 84.5418 13.3588 83.7899C13.0821 83.0503 12.9021 82.2779 12.8234 81.4921C12.6953 80.0049 12.8692 78.5072 13.3347 77.089C14.1411 74.7031 15.5429 72.5623 17.4076 70.8692C18.6334 69.7225 19.9625 68.6915 21.3781 67.7894C21.8775 67.4706 22.2745 67.23 22.5452 67.0736C22.6793 66.988 22.8201 66.9136 22.9664 66.8511C22.8484 66.9586 22.7193 67.0534 22.5813 67.1338L21.4563 67.9037C20.0739 68.8361 18.7719 69.8823 17.564 71.0316C15.7634 72.7221 14.4096 74.8321 13.6235 77.1732C13.1837 78.5513 13.0221 80.003 13.1482 81.444C13.2326 82.1997 13.4063 82.9428 13.6656 83.6576C13.9423 84.3854 14.3033 85.0892 14.6462 85.8291C15.0094 86.5541 15.2861 87.3192 15.4704 88.1089C15.6389 88.8919 15.6389 89.7018 15.4704 90.4849C15.1454 91.9673 14.3318 93.2976 13.1603 94.2624C12.6425 94.7133 12.0318 95.0446 11.3716 95.2327C10.7113 95.4209 10.0177 95.4613 9.34008 95.3512C8.74174 95.2664 8.17673 95.0239 7.70309 94.6487C7.22944 94.2734 6.86421 93.7788 6.6449 93.2158C6.46357 92.7527 6.40213 92.2513 6.46629 91.7581C6.53044 91.2649 6.71811 90.796 7.01188 90.3946C7.2525 90.1084 7.55395 89.8794 7.89426 89.7243C8.23458 89.5693 8.60519 89.4921 8.97912 89.4984C9.44716 89.4895 9.90608 89.6284 10.2906 89.8954C10.4315 89.999 10.5502 90.1299 10.6395 90.2804Z" fill="#6E38E0"/>
<path d="M32.4358 72.1267C32.2461 71.8011 32.131 71.4375 32.099 71.062C31.9575 70.1676 31.9922 69.2542 32.2012 68.3732C32.4047 67.4901 32.7808 66.656 33.308 65.919C33.717 65.3596 34.0539 65.0889 34.078 65.119C34.102 65.149 32.9892 66.4483 32.5381 68.4514C32.0869 70.4545 32.5441 72.1086 32.4358 72.1267Z" fill="#263238"/>
<path d="M27.4662 89.679C27.147 89.9569 26.8994 90.3076 26.7444 90.7015C26.6785 90.9089 26.6541 91.1272 26.6727 91.3439C26.6913 91.5607 26.7525 91.7716 26.8527 91.9647C26.9934 92.1906 27.1845 92.3809 27.4109 92.5207C27.6373 92.6605 27.893 92.7461 28.158 92.7708C28.4213 92.8124 28.6906 92.7951 28.9464 92.7202C29.2023 92.6453 29.4384 92.5147 29.6377 92.3377C29.9492 92.0267 30.1245 91.6048 30.125 91.1647C30.1061 90.7366 29.9732 90.3212 29.74 89.9617C29.74 89.9617 29.8723 90.0098 30.0227 90.1963C30.2324 90.4659 30.3542 90.7935 30.3716 91.1346C30.3888 91.3923 30.3529 91.6508 30.2659 91.894C30.179 92.1371 30.043 92.3598 29.8663 92.5482C29.6346 92.7672 29.3559 92.9303 29.0515 93.0252C28.747 93.1201 28.425 93.1441 28.1099 93.0956C27.7991 93.0662 27.4996 92.9644 27.2353 92.7983C26.971 92.6322 26.7493 92.4064 26.588 92.1392C26.4747 91.9061 26.4113 91.652 26.402 91.393C26.3926 91.134 26.4376 90.876 26.5339 90.6354C26.6523 90.3175 26.8615 90.0414 27.1354 89.8414C27.3279 89.709 27.4602 89.679 27.4662 89.679Z" fill="#455A64"/>
<path d="M64.7104 75.7358C64.6442 75.7358 64.9089 74.8095 64.9149 73.3297C64.9345 71.3668 64.4162 69.4361 63.4162 67.7468C62.4163 66.0576 60.9728 64.6745 59.2425 63.7475C57.9252 63.0317 56.9928 62.8272 57.0109 62.761C57.2345 62.7649 57.4561 62.8055 57.6665 62.8813C58.2499 63.042 58.816 63.2596 59.3568 63.5309C61.1691 64.4287 62.682 65.8328 63.7123 67.573C64.7426 69.3133 65.246 71.3151 65.1615 73.3357C65.1385 73.9435 65.0579 74.5477 64.9209 75.1403C64.8786 75.3476 64.8078 75.548 64.7104 75.7358Z" fill="#6E38E0"/>
<path d="M49.5086 81.6964C49.4726 81.7385 49.244 81.5219 48.8289 81.2693C48.2955 80.9406 47.6954 80.7351 47.0725 80.6678C46.4471 80.6049 45.8156 80.6851 45.2258 80.9024C44.7626 81.0648 44.498 81.2272 44.4679 81.1791C44.4378 81.1309 44.6664 80.9084 45.1296 80.6738C45.7423 80.3704 46.4286 80.2473 47.1086 80.3189C47.7875 80.3932 48.4327 80.6534 48.9733 81.0708C49.3763 81.3956 49.5447 81.6723 49.5086 81.6964Z" fill="#6E38E0"/>
<path d="M60.1206 82.7134C59.4075 82.829 58.6803 82.829 57.9672 82.7134C57.2463 82.7162 56.5296 82.6045 55.8438 82.3825C56.5551 82.2683 57.28 82.2683 57.9912 82.3825C58.7141 82.3785 59.433 82.4902 60.1206 82.7134Z" fill="#6E38E0"/>
<path d="M98.9296 134.998C98.9296 134.998 102.34 126.895 97.7266 127.779C90.6587 129.127 91.7114 136.002 91.7114 136.002L98.9296 134.998Z" fill="#EB996E"/>
<path d="M105.5 98.6537C104.906 98.4429 104.283 98.3232 103.653 98.2988C107.492 101.15 108.532 108.489 105.843 115.899C103.22 123.118 97.9141 128.044 93.2096 128.008L92.8366 127.912C89.1006 124.994 88.114 117.746 90.767 110.42C93.4201 103.093 98.8887 98.0883 103.647 98.2988C103.164 97.936 102.631 97.6443 102.065 97.4327C96.9756 95.58 90.358 100.849 87.3499 109.198C84.4081 117.307 85.9362 125.319 90.7129 127.467H90.6166L81.2076 151.528C81.0065 152.039 81.0169 152.609 81.2363 153.113C81.4558 153.616 81.8663 154.012 82.3777 154.213C82.8891 154.414 83.4594 154.404 83.9631 154.185C84.4669 153.965 84.8628 153.555 85.0639 153.043L94.5692 128.886C99.6768 130.733 106.27 125.47 109.296 117.12C112.322 108.771 110.608 100.506 105.5 98.6537Z" fill="#263238"/>
<path d="M101.253 120.417C101.32 120.162 101.417 119.915 101.542 119.683L102.42 117.74C103.418 115.62 104.196 113.402 104.742 111.123C105.265 108.851 105.265 106.49 104.742 104.218C104.478 103.288 104.144 102.379 103.743 101.499C103.919 101.697 104.065 101.92 104.176 102.16C104.516 102.792 104.784 103.46 104.976 104.151C105.582 106.456 105.617 108.874 105.079 111.195C104.531 113.489 103.713 115.71 102.642 117.812C102.239 118.618 101.903 119.268 101.662 119.707C101.558 119.961 101.42 120.199 101.253 120.417Z" fill="#263238"/>
<path d="M100.266 122.342C100.332 122.414 100.044 122.817 99.6105 123.244C99.1774 123.671 98.7804 123.96 98.7142 123.893C98.6481 123.827 98.9368 123.424 99.3699 122.997C99.803 122.57 100.2 122.275 100.266 122.342Z" fill="#263238"/>
<path d="M90.0018 131.376C89.2739 129.999 88.4258 128.098 87.1445 127.208C85.8633 126.318 84.0828 125.289 82.579 126.606C84.4703 129.306 86.223 132.101 87.8303 134.979L90.0018 131.376Z" fill="#EB996E"/>
<path d="M100.026 128.94C100.026 128.94 99.7428 127.34 97.3966 128.044C95.0503 128.748 87.6987 130.282 89.1185 131.845C90.5383 133.409 93.047 132.706 93.047 132.706C93.047 132.706 88.9621 133.59 89.3531 134.444C89.7442 135.298 90.424 136.778 92.1626 135.852C93.9013 134.925 98.7261 133.355 98.7261 133.355L100.026 128.94Z" fill="#EB996E"/>
<path d="M99.7593 132.513C99.7593 132.513 99.7593 132.357 99.7593 132.11C99.7536 131.944 99.6976 131.784 99.5987 131.651C99.4999 131.518 99.3629 131.418 99.2059 131.364C98.6834 131.305 98.1545 131.384 97.672 131.593L95.7171 132.116C94.3276 132.483 93.0644 132.79 92.144 132.994C91.6542 133.139 91.1499 133.23 90.6402 133.265C91.1006 133.042 91.585 132.872 92.0839 132.76C92.9862 132.489 94.2373 132.158 95.6268 131.785L97.5878 131.286C98.1282 131.07 98.7195 131.016 99.2901 131.129C99.4819 131.209 99.6435 131.347 99.7516 131.525C99.8597 131.702 99.9088 131.909 99.8916 132.116C99.8736 132.387 99.7713 132.519 99.7593 132.513Z" fill="#263238"/>
<path d="M37.0257 149.542L44.1246 162.703L79.3664 144.958C79.3664 144.958 84.5522 134.997 85.4125 135.124C86.2728 135.25 90.087 136.892 90.087 136.892C90.087 136.892 95.5014 133.969 96.6685 134.763C97.8356 135.557 99.4118 145.181 98.3891 148.159C97.3664 151.136 86.6639 157.133 86.6639 157.133C86.6639 157.133 57.787 176.093 45.2316 182.752C36.9655 187.143 29.6741 181.904 24.7771 173.603L16.4269 155.936" fill="#FFBE9D"/>
</g>
<defs>
<clipPath id="clip0_588_3982">
<rect width="267.791" height="203.576" fill="white" transform="translate(0.104645)"/>
</clipPath>
</defs>
</svg>
